<svg xmlns="http://www.w3.org/2000/svg" xmlns:xlink="http://www.w3.org/1999/xlink" viewBox="0 0 200 200"><defs><style>.cls-1{fill:url(#未命名的渐变_236);}.cls-2{fill:#fff;}</style><linearGradient id="未命名的渐变_236" x1="49.99" y1="186.62" x2="150.01" y2="13.38" gradientUnits="userSpaceOnUse"><stop offset="0" stop-color="#dcffb0"/><stop offset="0.48" stop-color="#74ffd2"/><stop offset="1" stop-color="#75cffe"/></linearGradient></defs><title>资源 6</title><g id="图层_2" data-name="图层 2"><g id="图层_1-2" data-name="图层 1"><circle class="cls-1" cx="100" cy="100" r="100"/><path class="cls-2" d="M98.48,155.16a5.14,5.14,0,1,1,0-10.27c35.29,0,53.18-10.82,53.18-32.15,0-25.74-23.17-46.68-51.66-46.68S48.34,87,48.34,112.74c0,10.9,3.84,18.74,11.74,24a5.14,5.14,0,1,1-5.66,8.57c-10.85-7.16-16.36-18.11-16.36-32.53,0-31.4,27.79-56.95,61.94-56.95s61.94,25.55,61.94,57C161.94,132.09,150.93,155.16,98.48,155.16Z"/><path class="cls-2" d="M104.34,57.89S123,39.55,138,46.34c10.6,4.83,8.87,33.45,8.87,33.45Z"/><rect class="cls-2" x="72.99" y="95.26" width="15.19" height="26.58" rx="7.59" ry="7.59"/><rect class="cls-2" x="111.88" y="95.26" width="15.19" height="26.58" rx="7.59" ry="7.59"/></g></g></svg>